# xmcd CD database file
#
# Track frame offsets:
#	182
#	9930
#	23675
#	36527
#	68332
#	100157
#	114400
#	145310
#	169727
#	185290
#
# Disc length: 2678 seconds
#
# Revision: 0
# Processed by: cddbd v1.4PL0 Copyright (c) Steve Scherf et al.
# Submitted via: CDex 1.50Beta7
#
DISCID=760a740a
DTITLE=Duke Ellington - The Duke Ellington Orchestra - Disk 2/2
DYEAR=1990
DGENRE=Jazz
TTITLE0=Music is My Mistress, Movement 1, Part 1
TTITLE1=Music is My Mistress, Movement 1, Part 2
TTITLE2=Music Is My Mistress, Movement 2
TTITLE3=Music Is My Mistress, Movement 3
TTITLE4=Music Is My Mistress, Movement 4
TTITLE5=Music Is My Mistress, Movement 5
TTITLE6=The Duke's Suite
TTITLE7=I'm Just a Lucky So and So
TTITLE8=In a Sentimental Mood
TTITLE9=East St. Louis Toodle-oo
EXTD=YEAR: 1990
EXTT0=
EXTT1=
EXTT2=
EXTT3=
EXTT4=
EXTT5=
EXTT6=
EXTT7=
EXTT8=
EXTT9=
PLAYORDER=
